<svg width="20" height="20" viewBox="0 0 20 20" fill="none" xmlns="http://www.w3.org/2000/svg">
<path d="M16.6667 10.8333C16.1667 10.8333 15.8334 10.5 15.8334 10C15.8334 6.75 13.25 4.16667 10 4.16667C8.41669 4.16667 7.00002 4.75 5.83335 5.83333C5.58335 6.16667 5.00002 6.16667 4.66669 5.83333C4.33335 5.5 4.33335 5 4.66669 4.66667C6.08335 3.25 8.00002 2.5 10 2.5C14.1667 2.5 17.5 5.83333 17.5 10C17.5 10.5 17.1667 10.8333 16.6667 10.8333Z" fill="black"/>
<path d="M10 17.5C5.83333 17.5 2.5 14.1667 2.5 9.99999C2.5 9.49999 2.83333 9.16666 3.33333 9.16666C3.83333 9.16666 4.16667 9.49999 4.16667 9.99999C4.16667 13.25 6.75 15.8333 10 15.8333C11.5833 15.8333 13 15.25 14.1667 14.1667C14.5 13.8333 15 13.8333 15.3333 14.1667C15.6667 14.5 15.6667 15 15.3333 15.3333C13.9167 16.75 12 17.5 10 17.5Z" fill="black"/>
<path d="M16.6667 10.8333C16.5 10.8333 16.3333 10.75 16.1667 10.6667L13.3333 8.58334C13 8.33334 12.9167 7.75001 13.1667 7.41667C13.4167 7.08334 14 7.00001 14.3333 7.25001L17.1667 9.33334C17.5 9.58334 17.5833 10.1667 17.3333 10.5C17.1667 10.75 16.9167 10.8333 16.6667 10.8333Z" fill="black"/>
<path d="M16.6667 10.8333C16.5 10.8333 16.3334 10.75 16.1667 10.6667C15.8334 10.4167 15.75 9.83334 16 9.50001L18.0834 6.66667C18.3334 6.33334 18.9167 6.25001 19.25 6.50001C19.5834 6.75001 19.6667 7.33334 19.4167 7.66667L17.3334 10.5C17.1667 10.75 16.9167 10.8333 16.6667 10.8333Z" fill="black"/>
<path d="M6.16666 12.9167C6 12.9167 5.83333 12.8333 5.66666 12.75L2.83333 10.6667C2.5 10.4167 2.41666 9.83332 2.66666 9.49999C2.91666 9.16665 3.41666 9.08332 3.83333 9.33332L6.66666 11.4167C7 11.6667 7.08333 12.25 6.83333 12.5833C6.66666 12.8333 6.41666 12.9167 6.16666 12.9167Z" fill="black"/>
<path d="M1.25002 13.6667C1.08335 13.6667 0.916683 13.5833 0.750016 13.5C0.416683 13.25 0.333349 12.6667 0.583349 12.3333L2.66668 9.49999C2.91668 9.16665 3.41668 9.08332 3.83335 9.33332C4.16668 9.58332 4.25002 10.1667 4.00002 10.5L1.91668 13.3333C1.75002 13.5833 1.50002 13.6667 1.25002 13.6667Z" fill="black"/>
</svg>
